<svg width="21" height="19" viewBox="0 0 21 19" fill="none" xmlns="http://www.w3.org/2000/svg">
<path d="M6.04978 18.552L4.92178 17.904L14.9538 0.527999L16.1058 1.176L6.04978 18.552ZM4.84978 11.256C3.60178 11.256 2.62578 10.824 1.92178 9.96C1.21778 9.08 0.865781 7.784 0.865781 6.072C0.865781 4.36 1.21778 3.072 1.92178 2.208C2.62578 1.344 3.60178 0.912 4.84978 0.912C6.11378 0.912 7.09778 1.344 7.80178 2.208C8.50578 3.072 8.85778 4.36 8.85778 6.072C8.85778 7.784 8.50578 9.08 7.80178 9.96C7.09778 10.824 6.11378 11.256 4.84978 11.256ZM4.84978 10.104C5.72978 10.104 6.37778 9.784 6.79378 9.144C7.22578 8.488 7.44178 7.464 7.44178 6.072C7.44178 4.68 7.22578 3.664 6.79378 3.024C6.37778 2.368 5.72978 2.04 4.84978 2.04C3.98578 2.04 3.33778 2.368 2.90578 3.024C2.48978 3.68 2.28178 4.696 2.28178 6.072C2.28178 7.464 2.48978 8.488 2.90578 9.144C3.33778 9.784 3.98578 10.104 4.84978 10.104ZM16.1538 18.168C14.8898 18.168 13.9058 17.736 13.2018 16.872C12.5138 16.008 12.1698 14.712 12.1698 12.984C12.1698 11.256 12.5138 9.968 13.2018 9.12C13.9058 8.256 14.8898 7.824 16.1538 7.824C17.4178 7.824 18.3938 8.256 19.0818 9.12C19.7858 9.968 20.1378 11.256 20.1378 12.984C20.1378 14.712 19.7858 16.008 19.0818 16.872C18.3938 17.736 17.4178 18.168 16.1538 18.168ZM16.1538 17.016C17.0178 17.016 17.6578 16.696 18.0738 16.056C18.5058 15.4 18.7218 14.376 18.7218 12.984C18.7218 11.608 18.5058 10.6 18.0738 9.96C17.6578 9.304 17.0178 8.976 16.1538 8.976C15.2738 8.976 14.6258 9.296 14.2098 9.936C13.7938 10.576 13.5858 11.592 13.5858 12.984C13.5858 14.376 13.7938 15.4 14.2098 16.056C14.6258 16.696 15.2738 17.016 16.1538 17.016Z" fill="#333333"/>
</svg>
